<svg width="33" height="33" viewBox="0 0 33 33" fill="none" xmlns="http://www.w3.org/2000/svg">
<path d="M30.831 23.4769C30.6679 23.3531 30.4993 23.225 30.3414 23.0986C29.504 22.4287 28.6131 21.8112 27.7514 21.2141C27.5726 21.0903 27.3938 20.9663 27.2156 20.8421C26.1119 20.0715 25.1196 19.697 24.1821 19.697C22.9194 19.697 21.8185 20.3905 20.9099 21.758C20.5073 22.3642 20.0189 22.659 19.4171 22.659C19.0612 22.659 18.6568 22.558 18.2152 22.3588C14.6527 20.753 12.1087 18.291 10.654 15.0411C9.95078 13.4703 10.1787 12.4436 11.4164 11.6079C12.1192 11.1338 13.4273 10.2512 13.3346 8.56091C13.2297 6.64147 8.96891 0.866117 7.17367 0.210163C6.41359 -0.0676629 5.61498 -0.0702515 4.79576 0.203692C2.73198 0.893296 1.25098 2.10436 0.512488 3.70574C-0.201156 5.25309 -0.168929 7.06996 0.605695 8.95996C2.84504 14.4244 5.99345 19.1886 9.9638 23.1201C13.85 26.9687 18.6266 30.1212 24.1606 32.4897C24.6594 32.7031 25.1826 32.8195 25.5647 32.9043C25.6949 32.9335 25.8073 32.9583 25.8892 32.9806C25.9343 32.9928 25.9807 32.9994 26.0272 32.9998L26.071 33C28.6738 33 31.7993 30.6359 32.7592 27.9407C33.6001 25.5807 32.0647 24.4141 30.831 23.4769Z" fill="#78A55A"/>
</svg>
