<!-- icon666.com - MILLIONS OF FREE VECTOR ICONS --><svg clip-rule="evenodd" fill-rule="evenodd" image-rendering="optimizeQuality" shape-rendering="geometricPrecision" text-rendering="geometricPrecision" viewBox="0 0 1.70666 1.70666" xmlns="http://www.w3.org/2000/svg"><g id="Layer_x0020_1"><path d="m.833339 1.70131c.0191024.0110236.0436142.00445276.0546378-.0146535.114146-.197831.450268-.686472.524461-.941453.0151299-.0520039.0232441-.106665.0232441-.162854 0-.32161-.26074-.582354-.58235-.582354s-.58235.260744-.58235.582354c0 .056189.00811417.11085.0232441.162854.0743819.255638.407476.73835.52274.938122.00333465.00729921.0088937.0136693.016374.0179843zm.245925-.893028c-.0578189.0578189-.137709.0935906-.225933.0935906-.0882244 0-.168114-.0357717-.225933-.0935906-.0578189-.0578189-.0935906-.137709-.0935906-.225933 0-.0882244.0357717-.16811.0935906-.225933.0578189-.0578189.137709-.0935906.225933-.0935906.0882244 0 .168114.0357717.225933.0935906.0578189.0578228.0935906.137709.0935906.225933 0 .0882244-.0357717.168114-.0935906.225933z" fill="#f10"></path><path d="m.627398.356417c-.0578189.0578228-.0935906.137709-.0935906.225933 0 .0882244.0357717.168114.0935906.225933.0578189.0578189.137709.0935906.225933.0935906.0882244 0 .168114-.0357717.225933-.0935906.0578189-.0578189.0935906-.137709.0935906-.225933 0-.0882244-.0357717-.16811-.0935906-.225933-.0578189-.0578189-.137709-.0935906-.225933-.0935906-.0882244 0-.168114.0357717-.225933.0935906zm.0309961.0309961c-.0498858.0498898-.080752.118815-.080752.194937s.0308661.145051.080752.194937c.0498858.0498858.118815.080752.194937.080752s.145051-.0308661.194937-.080752c.0498858-.0498858.080752-.118815.080752-.194937s-.0308661-.145047-.080752-.194937c-.0498858-.0498858-.118815-.080752-.194937-.080752s-.145051.0308661-.194937.080752z" fill="#e60f00"></path></g></svg>