<svg width="219" height="54" viewBox="0 0 219 54" fill="none" xmlns="http://www.w3.org/2000/svg">
<path d="M8.544 39.872C7.84 39.872 7.024 39.792 6.096 39.632C5.2 39.504 4.32 39.264 3.456 38.912C2.624 38.56 1.92 38.064 1.344 37.424C0.8 36.752 0.528 35.92 0.528 34.928C0.528 33.744 1.056 32.672 2.112 31.712C3.168 30.72 4.656 30.224 6.576 30.224C7.984 30.224 9.296 30.464 10.512 30.944C11.728 31.392 12.912 31.952 14.064 32.624C15.248 33.264 16.464 33.904 17.712 34.544C19.312 33.008 20.768 31.104 22.08 28.832C23.424 26.56 24.752 24.128 26.064 21.536C27.408 18.912 28.848 16.288 30.384 13.664C31.952 11.04 33.76 8.57603 35.808 6.27203L38.592 3.15203C37.408 2.96003 36.176 2.81603 34.896 2.72003C33.616 2.59203 32.288 2.52803 30.912 2.52803C29.024 2.52803 26.96 2.68803 24.72 3.00803C22.512 3.32803 20.304 3.82403 18.096 4.49603C15.92 5.16803 13.92 6.01603 12.096 7.04003C10.304 8.06403 8.864 9.28003 7.776 10.688C6.688 12.096 6.144 13.712 6.144 15.536C6.144 16.784 6.416 17.776 6.96 18.512C7.536 19.248 8.24 19.792 9.072 20.144C9.936 20.464 10.8 20.624 11.664 20.624C13.104 20.624 14.32 20.304 15.312 19.664C16.304 18.992 17.04 18.224 17.52 17.36C18.032 16.496 18.288 15.728 18.288 15.056C18.288 14.832 18.448 14.72 18.768 14.72C19.088 14.72 19.248 14.976 19.248 15.488C19.248 16.8 18.848 17.936 18.048 18.896C17.248 19.856 16.24 20.592 15.024 21.104C13.84 21.616 12.64 21.872 11.424 21.872C10.304 21.872 9.152 21.6 7.968 21.056C6.816 20.512 5.856 19.696 5.088 18.608C4.32 17.52 3.936 16.176 3.936 14.576C3.936 12.656 4.48 10.96 5.568 9.48803C6.656 7.98403 8.112 6.70403 9.936 5.64803C11.76 4.59203 13.792 3.72803 16.032 3.05603C18.272 2.35203 20.528 1.84003 22.8 1.52003C25.104 1.20003 27.264 1.04003 29.28 1.04003C31.136 1.04003 32.944 1.13603 34.704 1.32803C36.496 1.48803 38.176 1.74403 39.744 2.09603C40.192 1.71203 40.64 1.37603 41.088 1.08803C41.568 0.800025 42 0.576024 42.384 0.416025C42.736 0.256025 43.024 0.176025 43.248 0.176025C43.504 0.176025 43.632 0.272024 43.632 0.464024C43.632 0.560025 43.456 0.736025 43.104 0.992026C42.688 1.31203 42.32 1.61603 42 1.90403C41.712 2.16003 41.536 2.35203 41.472 2.48003C44.736 3.31203 47.376 4.46403 49.392 5.93603C51.44 7.37603 52.464 9.08803 52.464 11.072C52.464 12.704 51.904 14.144 50.784 15.392C49.664 16.608 48.192 17.568 46.368 18.272C44.576 18.976 42.656 19.376 40.608 19.472C43.488 20.4 45.776 21.6 47.472 23.072C49.2 24.544 50.064 26.416 50.064 28.688C50.064 30.384 49.568 31.92 48.576 33.296C47.616 34.672 46.32 35.856 44.688 36.848C43.088 37.808 41.328 38.544 39.408 39.056C37.488 39.6 35.584 39.872 33.696 39.872C30.72 39.872 28.08 39.568 25.776 38.96C23.504 38.352 21.136 37.488 18.672 36.368C15.568 38.704 12.192 39.872 8.544 39.872ZM33.024 38.48C35.008 38.48 36.816 38.176 38.448 37.568C40.08 36.96 41.488 36.16 42.672 35.168C43.888 34.176 44.816 33.072 45.456 31.856C46.128 30.64 46.464 29.44 46.464 28.256C46.464 27.136 46.128 26.064 45.456 25.04C44.784 23.984 43.728 23.104 42.288 22.4C40.432 21.472 38.8 20.832 37.392 20.48C35.984 20.096 34.864 19.744 34.032 19.424C33.712 19.264 33.504 19.152 33.408 19.088C33.312 19.024 33.264 18.96 33.264 18.896C33.264 18.576 33.424 18.32 33.744 18.128C34.064 17.936 34.432 17.84 34.848 17.84C35.488 17.84 36.176 17.888 36.912 17.984C37.648 18.08 38.432 18.128 39.264 18.128C41.344 18.128 43.136 17.712 44.64 16.88C46.144 16.048 47.296 15.008 48.096 13.76C48.928 12.512 49.344 11.28 49.344 10.064C49.344 8.68803 48.736 7.48803 47.52 6.46403C46.304 5.40803 44.096 4.46403 40.896 3.63203C39.296 5.84003 37.696 8.32003 36.096 11.072C34.496 13.792 32.896 16.56 31.296 19.376C29.696 22.16 28.08 24.8 26.448 27.296C24.816 29.792 23.184 31.936 21.552 33.728C21.168 34.144 20.864 34.464 20.64 34.688C20.416 34.88 20.112 35.152 19.728 35.504C21.648 36.304 23.76 37.008 26.064 37.616C28.368 38.192 30.688 38.48 33.024 38.48ZM7.584 38.384C9.376 38.48 11.008 38.272 12.48 37.76C13.984 37.216 15.376 36.464 16.656 35.504C15.888 35.12 14.912 34.624 13.728 34.016C12.544 33.408 11.344 32.88 10.128 32.432C8.912 31.952 7.856 31.712 6.96 31.712C5.776 31.712 4.88 32.032 4.272 32.672C3.664 33.28 3.36 33.984 3.36 34.784C3.36 35.616 3.712 36.416 4.416 37.184C5.12 37.92 6.176 38.32 7.584 38.384ZM64.0605 38.144C63.3245 38.144 62.6685 37.936 62.0925 37.52C61.5485 37.104 61.2765 36.256 61.2765 34.976C61.2765 34.432 61.3085 33.92 61.3725 33.44C61.4685 32.96 61.5805 32.448 61.7085 31.904C61.4205 32.384 61.0205 32.976 60.5085 33.68C59.9965 34.384 59.4205 35.072 58.7805 35.744C58.1725 36.416 57.5325 36.976 56.8605 37.424C56.2205 37.872 55.6125 38.096 55.0365 38.096C54.2045 38.096 53.5325 37.728 53.0205 36.992C52.5085 36.224 52.2525 35.232 52.2525 34.016C52.2525 32.704 52.5565 31.296 53.1645 29.792C53.7725 28.288 54.6045 26.848 55.6605 25.472C56.7165 24.096 57.9325 22.976 59.3085 22.112C60.6845 21.248 62.1245 20.816 63.6285 20.816C64.3645 20.816 65.0685 20.944 65.7405 21.2C66.4125 21.424 67.0045 21.808 67.5165 22.352C67.7405 22.576 67.8525 22.832 67.8525 23.12C67.8525 23.312 67.7725 23.472 67.6125 23.6C67.4525 23.728 67.2445 23.76 66.9885 23.696C66.6365 22.576 65.8845 22.016 64.7325 22.016C64.1885 22.016 63.5645 22.192 62.8605 22.544C61.9965 22.992 61.0685 23.712 60.0765 24.704C59.1165 25.664 58.2045 26.768 57.3405 28.016C56.5085 29.232 55.8205 30.464 55.2765 31.712C54.7325 32.96 54.4605 34.096 54.4605 35.12C54.4605 36.176 54.8605 36.704 55.6605 36.704C56.3645 36.704 57.0845 36.368 57.8205 35.696C58.5885 35.024 59.3085 34.192 59.9805 33.2C60.6845 32.176 61.3245 31.168 61.9005 30.176C62.4765 29.184 62.9245 28.384 63.2445 27.776C63.7245 26.912 64.1725 26.192 64.5885 25.616C65.0045 25.04 65.5965 24.752 66.3645 24.752C66.7165 24.752 67.0685 24.8 67.4205 24.896C67.7725 24.992 68.1405 25.008 68.5245 24.944C67.5645 25.904 66.7165 27.04 65.9805 28.352C65.2765 29.664 64.7325 30.96 64.3485 32.24C63.9645 33.488 63.7725 34.544 63.7725 35.408C63.7725 36.368 64.0925 36.848 64.7325 36.848C65.2445 36.848 65.7885 36.56 66.3645 35.984C66.9725 35.408 67.5485 34.688 68.0925 33.824C68.6685 32.928 69.1965 32.032 69.6765 31.136C70.1565 30.208 70.5405 29.408 70.8285 28.736C70.9885 28.736 71.1165 28.752 71.2125 28.784C71.3405 28.816 71.4045 28.944 71.4045 29.168C71.3725 29.296 71.3085 29.44 71.2125 29.6C71.1485 29.728 71.0365 29.968 70.8765 30.32C70.6205 30.832 70.2685 31.52 69.8205 32.384C69.3725 33.248 68.8445 34.128 68.2365 35.024C67.6285 35.888 66.9725 36.624 66.2685 37.232C65.5645 37.84 64.8285 38.144 64.0605 38.144ZM66.7676 53.312C65.3596 53.312 64.3996 52.976 63.8876 52.304C63.3756 51.632 63.1196 50.864 63.1196 50C63.1196 48.784 63.5196 47.664 64.3196 46.64C65.0876 45.616 66.1276 44.688 67.4396 43.856C68.7516 43.024 70.2076 42.272 71.8076 41.6C73.4076 40.96 75.0236 40.4 76.6556 39.92C77.2636 38.864 77.8236 37.664 78.3356 36.32C78.8476 34.944 79.3116 33.616 79.7276 32.336C80.1436 31.024 80.4796 29.952 80.7356 29.12C80.3516 29.824 79.8556 30.688 79.2476 31.712C78.6716 32.704 78.0156 33.68 77.2796 34.64C76.5436 35.6 75.7436 36.4 74.8796 37.04C74.0476 37.68 73.1676 38 72.2396 38C71.8876 38 71.4556 37.92 70.9436 37.76C70.4636 37.6 70.0316 37.312 69.6476 36.896C69.2956 36.448 69.1196 35.792 69.1196 34.928C69.1196 34.096 69.3276 33.248 69.7436 32.384C70.1916 31.52 70.6876 30.464 71.2316 29.216C71.1676 29.216 71.0876 29.184 70.9916 29.12C70.8956 29.024 70.8476 28.896 70.8476 28.736C70.9116 28.608 71.0716 28.288 71.3276 27.776C71.5836 27.232 71.8876 26.624 72.2396 25.952C72.5916 25.248 72.9276 24.576 73.2476 23.936C73.5676 23.296 73.8236 22.8 74.0156 22.448C74.3676 21.744 74.9756 21.392 75.8396 21.392H78.8156C78.5916 21.584 78.3036 21.808 77.9516 22.064C77.6316 22.288 77.3276 22.64 77.0396 23.12C76.1756 24.592 75.4236 26.016 74.7836 27.392C74.1436 28.736 73.4556 30.176 72.7196 31.712C72.3676 32.448 72.1116 33.12 71.9516 33.728C71.7916 34.336 71.7116 34.864 71.7116 35.312C71.7116 36.368 72.0636 36.896 72.7676 36.896C73.5356 36.896 74.4636 36.272 75.5516 35.024C76.4476 33.968 77.3436 32.72 78.2396 31.28C79.1676 29.808 80.0476 28.304 80.8796 26.768C81.7436 25.2 82.4956 23.76 83.1356 22.448C83.4876 21.744 84.1116 21.392 85.0076 21.392H87.6476C86.7196 22.032 85.9996 22.864 85.4876 23.888C85.0076 24.912 84.4636 26.224 83.8556 27.824C83.1836 29.584 82.5436 31.408 81.9356 33.296C81.3276 35.152 80.6076 37.072 79.7756 39.056C81.7596 38.448 83.4076 37.616 84.7196 36.56C86.0636 35.504 87.1516 34.304 87.9836 32.96C88.8476 31.616 89.5516 30.208 90.0956 28.736C90.4796 28.736 90.6716 28.88 90.6716 29.168C89.9356 30.864 89.2316 32.288 88.5596 33.44C87.9196 34.592 87.1996 35.568 86.3996 36.368C85.6316 37.168 84.6716 37.872 83.5196 38.48C82.3996 39.088 80.9756 39.68 79.2476 40.256C78.4796 41.664 77.6636 43.12 76.7996 44.624C75.9676 46.16 75.0556 47.584 74.0636 48.896C73.1036 50.208 72.0156 51.264 70.7996 52.064C69.6156 52.896 68.2716 53.312 66.7676 53.312ZM66.2396 52.304C67.6796 52.304 69.1836 51.312 70.7516 49.328C72.3196 47.376 73.9836 44.752 75.7436 41.456C74.4956 41.776 73.1996 42.24 71.8556 42.848C70.5116 43.456 69.2476 44.144 68.0636 44.912C66.9116 45.712 65.9676 46.576 65.2316 47.504C64.4956 48.432 64.1276 49.392 64.1276 50.384C64.1276 50.896 64.3036 51.344 64.6556 51.728C64.9756 52.112 65.5036 52.304 66.2396 52.304ZM121.644 41.072C120.236 41.072 119.244 40.512 118.668 39.392C118.092 38.304 117.804 37.024 117.804 35.552C117.804 34.24 117.98 32.944 118.332 31.664C118.716 30.384 119.164 29.408 119.676 28.736C118.812 29.76 117.74 30.928 116.46 32.24C115.18 33.552 113.772 34.816 112.236 36.032C110.7 37.248 109.116 38.256 107.484 39.056C105.852 39.856 104.236 40.256 102.636 40.256C100.524 40.256 98.9404 39.584 97.8844 38.24C96.8604 36.896 96.3484 35.056 96.3484 32.72C96.3484 30.896 96.6524 28.944 97.2604 26.864C97.9004 24.752 98.8284 22.608 100.044 20.432C100.62 19.376 101.26 18.336 101.964 17.312C102.7 16.256 103.484 15.264 104.316 14.336C103.324 13.856 102.364 13.328 101.436 12.752C100.508 12.144 99.7564 11.424 99.1804 10.592C98.6044 9.76003 98.3164 8.76803 98.3164 7.61603C98.3164 7.00803 98.4444 6.46403 98.7004 5.98403C98.9884 5.47203 99.2924 5.21603 99.6124 5.21603C99.9004 5.21603 100.044 5.39203 100.044 5.74403C100.044 5.96803 99.9804 6.20803 99.8524 6.46403C99.6924 6.88003 99.6124 7.26403 99.6124 7.61603C99.6124 8.48003 99.9164 9.29603 100.524 10.064C101.132 10.8 101.868 11.44 102.732 11.984C103.596 12.528 104.396 12.96 105.132 13.28C107.18 11.04 109.42 8.97603 111.852 7.08803C114.316 5.16803 116.956 3.63203 119.772 2.48003C122.588 1.32803 125.548 0.752026 128.652 0.752026C131.244 0.752026 133.276 1.32803 134.748 2.48003C136.22 3.60003 136.956 5.05603 136.956 6.84803C136.956 8.44803 136.492 9.82403 135.564 10.976C134.668 12.096 133.484 13.04 132.012 13.808C130.54 14.544 128.94 15.136 127.212 15.584C125.516 16 123.836 16.304 122.172 16.496C120.508 16.656 119.052 16.736 117.804 16.736C115.98 16.736 114.204 16.624 112.476 16.4C110.78 16.176 109.084 15.824 107.388 15.344C106.556 16.528 105.644 17.904 104.652 19.472C103.692 21.008 102.764 22.64 101.868 24.368C101.004 26.064 100.284 27.76 99.7084 29.456C99.1644 31.12 98.8924 32.672 98.8924 34.112C98.8924 35.68 99.2604 36.864 99.9964 37.664C100.732 38.432 101.724 38.816 102.972 38.816C104.476 38.816 106.06 38.368 107.724 37.472C109.42 36.544 111.116 35.344 112.812 33.872C114.508 32.4 116.124 30.8 117.66 29.072C119.196 27.344 120.572 25.632 121.788 23.936C123.004 22.24 123.964 20.736 124.668 19.424C125.212 18.4 125.74 17.68 126.252 17.264C126.764 16.816 127.196 16.592 127.548 16.592C127.9 16.592 128.172 16.736 128.364 17.024C128.556 17.28 128.652 17.632 128.652 18.08C128.652 18.976 128.252 19.872 127.452 20.768C126.364 22.016 125.308 23.536 124.284 25.328C123.26 27.088 122.428 28.944 121.788 30.896C121.148 32.816 120.828 34.624 120.828 36.32C120.828 37.504 121.004 38.352 121.356 38.864C121.74 39.376 122.236 39.632 122.844 39.632C123.772 39.632 124.7 39.312 125.628 38.672C126.588 38.064 127.5 37.232 128.364 36.176C129.228 35.12 130.028 33.952 130.764 32.672C131.5 31.36 132.14 30.048 132.684 28.736C132.844 28.736 132.972 28.752 133.068 28.784C133.196 28.816 133.26 28.944 133.26 29.168C132.716 30.544 132.06 31.936 131.292 33.344C130.556 34.752 129.708 36.048 128.748 37.232C127.788 38.384 126.716 39.312 125.532 40.016C124.348 40.72 123.052 41.072 121.644 41.072ZM117.372 15.584C118.652 15.584 120.076 15.52 121.644 15.392C123.212 15.232 124.764 14.96 126.3 14.576C127.868 14.192 129.308 13.648 130.62 12.944C131.932 12.24 132.988 11.344 133.788 10.256C134.588 9.16803 134.988 7.84003 134.988 6.27203C134.988 4.86403 134.396 3.79203 133.212 3.05603C132.06 2.32003 130.588 1.95203 128.796 1.95203C125.82 1.95203 123.1 2.54403 120.636 3.72803C118.204 4.88003 115.964 6.40003 113.916 8.28803C111.9 10.176 109.98 12.208 108.156 14.384C109.564 14.8 111.004 15.104 112.476 15.296C113.98 15.488 115.612 15.584 117.372 15.584ZM158.212 5.55203C158.276 5.45603 158.388 5.40803 158.548 5.40803C158.804 5.40803 158.916 5.47203 158.884 5.60003C158.884 5.69603 158.82 5.85603 158.692 6.08003C158.436 6.49603 158.068 6.97603 157.588 7.52003C157.14 8.03203 156.58 8.48003 155.908 8.86403C155.236 9.24803 154.42 9.44003 153.46 9.44003C152.66 9.44003 151.812 9.28003 150.916 8.96003C150.052 8.60803 149.172 8.22403 148.276 7.80803C147.412 7.39203 146.596 7.02403 145.828 6.70403C145.06 6.35203 144.388 6.17603 143.812 6.17603C142.884 6.17603 142.148 6.48003 141.604 7.08803C141.06 7.66403 140.788 8.41603 140.788 9.34403C140.788 10.208 140.996 11.248 141.412 12.464C141.86 13.648 142.356 14.944 142.9 16.352C143.444 17.728 143.924 19.152 144.34 20.624C144.788 22.064 145.012 23.472 145.012 24.848C145.012 26.352 144.724 27.888 144.148 29.456C143.572 30.992 142.788 32.416 141.796 33.728C140.836 35.008 139.748 36.048 138.532 36.848C137.348 37.616 136.132 38 134.884 38C133.636 38 132.724 37.6 132.148 36.8C131.572 35.968 131.284 34.96 131.284 33.776C131.284 32.336 131.62 30.832 132.292 29.264C132.9 27.792 133.7 26.448 134.692 25.232C135.716 24.016 136.82 23.04 138.004 22.304C139.188 21.536 140.356 21.152 141.508 21.152C141.764 21.152 142.036 21.184 142.324 21.248C142.644 21.28 142.98 21.376 143.332 21.536C142.884 20 142.356 18.432 141.748 16.832C141.14 15.2 140.596 13.68 140.116 12.272C139.636 10.832 139.396 9.60003 139.396 8.57603C139.396 7.26403 139.844 6.16003 140.74 5.26403C141.636 4.36803 142.916 3.92003 144.58 3.92003C145.508 3.92003 146.404 4.09603 147.268 4.44803C148.164 4.76803 149.028 5.15203 149.86 5.60003C150.724 6.01603 151.572 6.40003 152.404 6.75203C153.236 7.07203 154.068 7.23203 154.9 7.23203C155.764 7.23203 156.452 7.08803 156.964 6.80003C157.476 6.48003 157.892 6.06403 158.212 5.55203ZM143.236 25.184C143.236 24.896 143.204 24.56 143.14 24.176C143.108 23.76 142.98 23.408 142.756 23.12C142.564 22.832 142.244 22.688 141.796 22.688C141.028 22.688 140.068 23.232 138.916 24.32C137.764 25.408 136.676 26.992 135.652 29.072C135.14 30.16 134.724 31.216 134.404 32.24C134.116 33.232 133.972 34.096 133.972 34.832C133.972 35.472 134.1 35.984 134.356 36.368C134.612 36.752 135.044 36.944 135.652 36.944C136.452 36.944 137.284 36.624 138.148 35.984C139.044 35.312 139.876 34.416 140.644 33.296C141.412 32.176 142.036 30.912 142.516 29.504C142.996 28.096 143.236 26.656 143.236 25.184ZM139.812 51.104C139.428 51.104 139.108 51.056 138.852 50.96C138.564 50.896 138.196 50.864 137.748 50.864C137.908 50.64 138.292 49.968 138.9 48.848C139.508 47.76 140.228 46.4 141.06 44.768C141.86 43.136 142.708 41.392 143.604 39.536C144.468 37.68 145.268 35.856 146.004 34.064C146.772 32.24 147.364 30.64 147.78 29.264C148.004 28.528 148.18 27.696 148.308 26.768C148.436 25.808 148.5 24.736 148.5 23.552C148.5 23.104 148.452 22.72 148.356 22.4C148.26 22.08 148.084 21.904 147.828 21.872L150.228 21.488C150.42 21.456 150.596 21.44 150.756 21.44C150.916 21.408 151.06 21.392 151.188 21.392C151.476 21.392 151.668 21.504 151.764 21.728C151.892 21.92 151.956 22.336 151.956 22.976C151.956 23.776 151.812 24.8 151.524 26.048C151.268 27.264 150.964 28.336 150.612 29.264C150.964 28.688 151.412 27.952 151.956 27.056C152.532 26.16 153.188 25.248 153.924 24.32C154.66 23.392 155.428 22.624 156.228 22.016C157.028 21.376 157.812 21.056 158.58 21.056C158.74 21.056 158.948 21.088 159.204 21.152C160.1 21.376 160.724 21.824 161.076 22.496C161.46 23.136 161.652 23.904 161.652 24.8C161.652 25.76 161.46 26.816 161.076 27.968C160.724 29.12 160.244 30.256 159.636 31.376C159.028 32.464 158.356 33.456 157.62 34.352C156.724 35.472 155.652 36.368 154.404 37.04C153.156 37.712 151.876 38.048 150.564 38.048C149.38 38.048 148.276 37.744 147.252 37.136L142.596 48.608C142.148 49.696 141.7 50.384 141.252 50.672C140.804 50.96 140.324 51.104 139.812 51.104ZM149.028 37.04C149.924 37.04 150.932 36.624 152.052 35.792C153.172 34.96 154.244 33.904 155.268 32.624C156.324 31.312 157.204 30 157.908 28.688C158.388 27.792 158.74 26.976 158.964 26.24C159.188 25.472 159.3 24.816 159.3 24.272C159.3 23.024 158.852 22.4 157.956 22.4C157.54 22.4 156.996 22.624 156.324 23.072C155.684 23.52 154.932 24.336 154.068 25.52C153.14 26.8 152.116 28.416 150.996 30.368C149.908 32.288 148.788 34.32 147.636 36.464C148.02 36.848 148.484 37.04 149.028 37.04ZM173.889 38.144C173.153 38.144 172.497 37.936 171.921 37.52C171.377 37.104 171.105 36.256 171.105 34.976C171.105 34.432 171.137 33.92 171.201 33.44C171.297 32.96 171.409 32.448 171.537 31.904C171.249 32.384 170.849 32.976 170.337 33.68C169.825 34.384 169.249 35.072 168.609 35.744C168.001 36.416 167.361 36.976 166.689 37.424C166.049 37.872 165.441 38.096 164.865 38.096C164.033 38.096 163.361 37.728 162.849 36.992C162.337 36.224 162.081 35.232 162.081 34.016C162.081 32.704 162.385 31.296 162.993 29.792C163.601 28.288 164.433 26.848 165.489 25.472C166.545 24.096 167.761 22.976 169.137 22.112C170.513 21.248 171.953 20.816 173.457 20.816C174.193 20.816 174.897 20.944 175.569 21.2C176.241 21.424 176.833 21.808 177.345 22.352C177.569 22.576 177.681 22.832 177.681 23.12C177.681 23.312 177.601 23.472 177.441 23.6C177.281 23.728 177.073 23.76 176.817 23.696C176.465 22.576 175.713 22.016 174.561 22.016C174.017 22.016 173.393 22.192 172.689 22.544C171.825 22.992 170.897 23.712 169.905 24.704C168.945 25.664 168.033 26.768 167.169 28.016C166.337 29.232 165.649 30.464 165.105 31.712C164.561 32.96 164.289 34.096 164.289 35.12C164.289 36.176 164.689 36.704 165.489 36.704C166.193 36.704 166.913 36.368 167.649 35.696C168.417 35.024 169.137 34.192 169.809 33.2C170.513 32.176 171.153 31.168 171.729 30.176C172.305 29.184 172.753 28.384 173.073 27.776C173.553 26.912 174.001 26.192 174.417 25.616C174.833 25.04 175.425 24.752 176.193 24.752C176.545 24.752 176.897 24.8 177.249 24.896C177.601 24.992 177.969 25.008 178.353 24.944C177.393 25.904 176.545 27.04 175.809 28.352C175.105 29.664 174.561 30.96 174.177 32.24C173.793 33.488 173.601 34.544 173.601 35.408C173.601 36.368 173.921 36.848 174.561 36.848C175.073 36.848 175.617 36.56 176.193 35.984C176.801 35.408 177.377 34.688 177.921 33.824C178.497 32.928 179.025 32.032 179.505 31.136C179.985 30.208 180.369 29.408 180.657 28.736C180.817 28.736 180.945 28.752 181.041 28.784C181.169 28.816 181.233 28.944 181.233 29.168C181.201 29.296 181.137 29.44 181.041 29.6C180.977 29.728 180.865 29.968 180.705 30.32C180.449 30.832 180.097 31.52 179.649 32.384C179.201 33.248 178.673 34.128 178.065 35.024C177.457 35.888 176.801 36.624 176.097 37.232C175.393 37.84 174.657 38.144 173.889 38.144ZM176.596 53.312C175.188 53.312 174.228 52.976 173.716 52.304C173.204 51.632 172.948 50.864 172.948 50C172.948 48.784 173.348 47.664 174.148 46.64C174.916 45.616 175.956 44.688 177.268 43.856C178.58 43.024 180.036 42.272 181.636 41.6C183.236 40.96 184.852 40.4 186.484 39.92C187.092 38.864 187.652 37.664 188.164 36.32C188.676 34.944 189.14 33.616 189.556 32.336C189.972 31.024 190.308 29.952 190.564 29.12C190.18 29.824 189.684 30.688 189.076 31.712C188.5 32.704 187.844 33.68 187.108 34.64C186.372 35.6 185.572 36.4 184.708 37.04C183.876 37.68 182.996 38 182.068 38C181.716 38 181.284 37.92 180.772 37.76C180.292 37.6 179.86 37.312 179.476 36.896C179.124 36.448 178.948 35.792 178.948 34.928C178.948 34.096 179.156 33.248 179.572 32.384C180.02 31.52 180.516 30.464 181.06 29.216C180.996 29.216 180.916 29.184 180.82 29.12C180.724 29.024 180.676 28.896 180.676 28.736C180.74 28.608 180.9 28.288 181.156 27.776C181.412 27.232 181.716 26.624 182.068 25.952C182.42 25.248 182.756 24.576 183.076 23.936C183.396 23.296 183.652 22.8 183.844 22.448C184.196 21.744 184.804 21.392 185.668 21.392H188.644C188.42 21.584 188.132 21.808 187.78 22.064C187.46 22.288 187.156 22.64 186.868 23.12C186.004 24.592 185.252 26.016 184.612 27.392C183.972 28.736 183.284 30.176 182.548 31.712C182.196 32.448 181.94 33.12 181.78 33.728C181.62 34.336 181.54 34.864 181.54 35.312C181.54 36.368 181.892 36.896 182.596 36.896C183.364 36.896 184.292 36.272 185.38 35.024C186.276 33.968 187.172 32.72 188.068 31.28C188.996 29.808 189.876 28.304 190.708 26.768C191.572 25.2 192.324 23.76 192.964 22.448C193.316 21.744 193.94 21.392 194.836 21.392H197.476C196.548 22.032 195.828 22.864 195.316 23.888C194.836 24.912 194.292 26.224 193.684 27.824C193.012 29.584 192.372 31.408 191.764 33.296C191.156 35.152 190.436 37.072 189.604 39.056C191.588 38.448 193.236 37.616 194.548 36.56C195.892 35.504 196.98 34.304 197.812 32.96C198.676 31.616 199.38 30.208 199.924 28.736C200.308 28.736 200.5 28.88 200.5 29.168C199.764 30.864 199.06 32.288 198.388 33.44C197.748 34.592 197.028 35.568 196.228 36.368C195.46 37.168 194.5 37.872 193.348 38.48C192.228 39.088 190.804 39.68 189.076 40.256C188.308 41.664 187.492 43.12 186.628 44.624C185.796 46.16 184.884 47.584 183.892 48.896C182.932 50.208 181.844 51.264 180.628 52.064C179.444 52.896 178.1 53.312 176.596 53.312ZM176.068 52.304C177.508 52.304 179.012 51.312 180.58 49.328C182.148 47.376 183.812 44.752 185.572 41.456C184.324 41.776 183.028 42.24 181.684 42.848C180.34 43.456 179.076 44.144 177.892 44.912C176.74 45.712 175.796 46.576 175.06 47.504C174.324 48.432 173.956 49.392 173.956 50.384C173.956 50.896 174.132 51.344 174.484 51.728C174.804 52.112 175.332 52.304 176.068 52.304ZM204.645 32.864L204.117 32.768L204.165 32.48L214.005 9.10403C214.165 8.65603 214.469 8.38403 214.917 8.28803C215.365 8.19203 215.845 8.14403 216.357 8.14403H217.893L218.133 8.28803L218.229 8.52803C218.165 8.75203 217.909 9.31203 217.461 10.208C217.013 11.072 216.421 12.176 215.685 13.52C214.949 14.832 214.133 16.288 213.237 17.888C212.341 19.456 211.429 21.04 210.501 22.64C209.605 24.208 208.741 25.696 207.909 27.104C207.109 28.512 206.421 29.728 205.845 30.752C205.269 31.776 204.869 32.48 204.645 32.864ZM202.773 38.72C202.165 38.72 201.701 38.512 201.381 38.096C201.061 37.68 200.917 37.2 200.949 36.656C200.949 36.08 201.173 35.616 201.621 35.264C202.069 34.912 202.549 34.736 203.061 34.736C203.573 34.736 204.005 34.896 204.357 35.216C204.709 35.504 204.901 35.888 204.933 36.368C204.997 36.976 204.805 37.52 204.357 38C203.909 38.48 203.381 38.72 202.773 38.72Z" fill="#E5F4F6"/>
</svg>
